<mxfile host="app.diagrams.net" modified="2021-07-07T06:05:35.710Z" agent="5.0 (Macintosh; Intel Mac OS X 10_15_6) AppleWebKit/537.36 (KHTML, like Gecko) Chrome/91.0.4472.114 Safari/537.36" etag="hzNLisWGG3JcGQLAz8bG" version="14.8.2" type="github">
  <diagram id="oreRLML-fIO5NJBekv-O" name="Page-1">
    <mxGraphModel dx="2946" dy="1064" grid="1" gridSize="10" guides="1" tooltips="1" connect="1" arrows="1" fold="1" page="1" pageScale="1" pageWidth="827" pageHeight="1169" math="0" shadow="0">
      <root>
        <mxCell id="0" />
        <mxCell id="1" parent="0" />
        <mxCell id="J0xB7BxQOzIGuj7F1EcN-8" value="匹配服务" style="swimlane;" parent="1" vertex="1">
          <mxGeometry x="20" y="620" width="720" height="430" as="geometry" />
        </mxCell>
        <mxCell id="J0xB7BxQOzIGuj7F1EcN-37" style="edgeStyle=orthogonalEdgeStyle;rounded=0;orthogonalLoop=1;jettySize=auto;html=1;" parent="J0xB7BxQOzIGuj7F1EcN-8" source="J0xB7BxQOzIGuj7F1EcN-9" target="J0xB7BxQOzIGuj7F1EcN-11" edge="1">
          <mxGeometry relative="1" as="geometry" />
        </mxCell>
        <mxCell id="J0xB7BxQOzIGuj7F1EcN-38" style="edgeStyle=orthogonalEdgeStyle;rounded=0;orthogonalLoop=1;jettySize=auto;html=1;entryX=0.583;entryY=0.083;entryDx=0;entryDy=0;entryPerimeter=0;" parent="J0xB7BxQOzIGuj7F1EcN-8" source="J0xB7BxQOzIGuj7F1EcN-9" target="J0xB7BxQOzIGuj7F1EcN-21" edge="1">
          <mxGeometry relative="1" as="geometry" />
        </mxCell>
        <mxCell id="J0xB7BxQOzIGuj7F1EcN-9" value="httpd" style="ellipse;whiteSpace=wrap;html=1;aspect=fixed;" parent="J0xB7BxQOzIGuj7F1EcN-8" vertex="1">
          <mxGeometry x="130" y="70" width="80" height="80" as="geometry" />
        </mxCell>
        <mxCell id="J0xB7BxQOzIGuj7F1EcN-39" style="edgeStyle=orthogonalEdgeStyle;rounded=0;orthogonalLoop=1;jettySize=auto;html=1;" parent="J0xB7BxQOzIGuj7F1EcN-8" source="J0xB7BxQOzIGuj7F1EcN-11" target="J0xB7BxQOzIGuj7F1EcN-15" edge="1">
          <mxGeometry relative="1" as="geometry" />
        </mxCell>
        <mxCell id="J0xB7BxQOzIGuj7F1EcN-11" value="sign/handle" style="rounded=1;whiteSpace=wrap;html=1;" parent="J0xB7BxQOzIGuj7F1EcN-8" vertex="1">
          <mxGeometry x="30" y="215" width="120" height="60" as="geometry" />
        </mxCell>
        <mxCell id="J0xB7BxQOzIGuj7F1EcN-48" style="edgeStyle=orthogonalEdgeStyle;rounded=0;orthogonalLoop=1;jettySize=auto;html=1;" parent="J0xB7BxQOzIGuj7F1EcN-8" source="J0xB7BxQOzIGuj7F1EcN-13" target="J0xB7BxQOzIGuj7F1EcN-17" edge="1">
          <mxGeometry relative="1" as="geometry" />
        </mxCell>
        <mxCell id="J0xB7BxQOzIGuj7F1EcN-13" value="报名池" style="swimlane;fontStyle=0;childLayout=stackLayout;horizontal=1;startSize=26;fillColor=none;horizontalStack=0;resizeParent=1;resizeParentMax=0;resizeLast=0;collapsible=1;marginBottom=0;" parent="J0xB7BxQOzIGuj7F1EcN-8" vertex="1">
          <mxGeometry x="395" y="270" width="140" height="104" as="geometry" />
        </mxCell>
        <mxCell id="J0xB7BxQOzIGuj7F1EcN-14" value="group1" style="text;strokeColor=none;fillColor=none;align=left;verticalAlign=top;spacingLeft=4;spacingRight=4;overflow=hidden;rotatable=0;points=[[0,0.5],[1,0.5]];portConstraint=eastwest;" parent="J0xB7BxQOzIGuj7F1EcN-13" vertex="1">
          <mxGeometry y="26" width="140" height="26" as="geometry" />
        </mxCell>
        <mxCell id="J0xB7BxQOzIGuj7F1EcN-15" value="group2" style="text;strokeColor=none;fillColor=none;align=left;verticalAlign=top;spacingLeft=4;spacingRight=4;overflow=hidden;rotatable=0;points=[[0,0.5],[1,0.5]];portConstraint=eastwest;" parent="J0xB7BxQOzIGuj7F1EcN-13" vertex="1">
          <mxGeometry y="52" width="140" height="26" as="geometry" />
        </mxCell>
        <mxCell id="J0xB7BxQOzIGuj7F1EcN-16" value="groupN" style="text;strokeColor=none;fillColor=none;align=left;verticalAlign=top;spacingLeft=4;spacingRight=4;overflow=hidden;rotatable=0;points=[[0,0.5],[1,0.5]];portConstraint=eastwest;" parent="J0xB7BxQOzIGuj7F1EcN-13" vertex="1">
          <mxGeometry y="78" width="140" height="26" as="geometry" />
        </mxCell>
        <mxCell id="J0xB7BxQOzIGuj7F1EcN-17" value="&amp;nbsp;matching" style="ellipse;whiteSpace=wrap;html=1;aspect=fixed;" parent="J0xB7BxQOzIGuj7F1EcN-8" vertex="1">
          <mxGeometry x="425" y="70" width="80" height="80" as="geometry" />
        </mxCell>
        <mxCell id="J0xB7BxQOzIGuj7F1EcN-47" style="edgeStyle=orthogonalEdgeStyle;rounded=0;orthogonalLoop=1;jettySize=auto;html=1;entryX=0.471;entryY=1.038;entryDx=0;entryDy=0;entryPerimeter=0;" parent="J0xB7BxQOzIGuj7F1EcN-8" source="J0xB7BxQOzIGuj7F1EcN-21" target="J0xB7BxQOzIGuj7F1EcN-16" edge="1">
          <mxGeometry relative="1" as="geometry" />
        </mxCell>
        <mxCell id="J0xB7BxQOzIGuj7F1EcN-21" value="signCancel/handle" style="rounded=1;whiteSpace=wrap;html=1;" parent="J0xB7BxQOzIGuj7F1EcN-8" vertex="1">
          <mxGeometry x="210" y="215" width="120" height="60" as="geometry" />
        </mxCell>
        <mxCell id="J0xB7BxQOzIGuj7F1EcN-25" value="timeout" style="ellipse;whiteSpace=wrap;html=1;aspect=fixed;" parent="J0xB7BxQOzIGuj7F1EcN-8" vertex="1">
          <mxGeometry x="595" y="70" width="80" height="80" as="geometry" />
        </mxCell>
        <mxCell id="J0xB7BxQOzIGuj7F1EcN-46" style="edgeStyle=orthogonalEdgeStyle;rounded=0;orthogonalLoop=1;jettySize=auto;html=1;entryX=0.5;entryY=1;entryDx=0;entryDy=0;" parent="J0xB7BxQOzIGuj7F1EcN-8" source="J0xB7BxQOzIGuj7F1EcN-14" target="J0xB7BxQOzIGuj7F1EcN-25" edge="1">
          <mxGeometry relative="1" as="geometry" />
        </mxCell>
        <mxCell id="J0xB7BxQOzIGuj7F1EcN-18" value="APP/SERVIER/PC" style="swimlane;" parent="1" vertex="1">
          <mxGeometry x="20" y="150" width="720" height="240" as="geometry" />
        </mxCell>
        <mxCell id="J0xB7BxQOzIGuj7F1EcN-2" value="小组/玩家&lt;br&gt;报名信息" style="rounded=0;whiteSpace=wrap;html=1;" parent="J0xB7BxQOzIGuj7F1EcN-18" vertex="1">
          <mxGeometry x="20" y="110" width="120" height="60" as="geometry" />
        </mxCell>
        <mxCell id="J0xB7BxQOzIGuj7F1EcN-19" value="ID" style="rounded=0;whiteSpace=wrap;html=1;" parent="J0xB7BxQOzIGuj7F1EcN-18" vertex="1">
          <mxGeometry x="180" y="110" width="120" height="60" as="geometry" />
        </mxCell>
        <mxCell id="PXDiuTHxM-yWdiHdvYmS-19" value="接收匹配&lt;br&gt;成功信息" style="ellipse;whiteSpace=wrap;html=1;aspect=fixed;" vertex="1" parent="J0xB7BxQOzIGuj7F1EcN-18">
          <mxGeometry x="425" y="110" width="80" height="80" as="geometry" />
        </mxCell>
        <mxCell id="PXDiuTHxM-yWdiHdvYmS-21" value="接收匹配&lt;br&gt;异常信息" style="ellipse;whiteSpace=wrap;html=1;aspect=fixed;" vertex="1" parent="J0xB7BxQOzIGuj7F1EcN-18">
          <mxGeometry x="595" y="110" width="80" height="80" as="geometry" />
        </mxCell>
        <mxCell id="J0xB7BxQOzIGuj7F1EcN-24" value="http" style="swimlane;" parent="1" vertex="1">
          <mxGeometry x="20" y="430" width="720" height="130" as="geometry" />
        </mxCell>
        <mxCell id="J0xB7BxQOzIGuj7F1EcN-26" value="v1/match/succ" style="rounded=0;whiteSpace=wrap;html=1;" parent="J0xB7BxQOzIGuj7F1EcN-24" vertex="1">
          <mxGeometry x="400" y="50" width="130" height="60" as="geometry" />
        </mxCell>
        <mxCell id="J0xB7BxQOzIGuj7F1EcN-27" value="v1/match/error" style="rounded=0;whiteSpace=wrap;html=1;" parent="J0xB7BxQOzIGuj7F1EcN-24" vertex="1">
          <mxGeometry x="570" y="50" width="130" height="60" as="geometry" />
        </mxCell>
        <mxCell id="J0xB7BxQOzIGuj7F1EcN-31" value="http&lt;br&gt;/sign" style="rounded=0;whiteSpace=wrap;html=1;" parent="J0xB7BxQOzIGuj7F1EcN-24" vertex="1">
          <mxGeometry x="20" y="50" width="120" height="60" as="geometry" />
        </mxCell>
        <mxCell id="J0xB7BxQOzIGuj7F1EcN-32" value="http&lt;br&gt;/signCancel" style="rounded=0;whiteSpace=wrap;html=1;" parent="J0xB7BxQOzIGuj7F1EcN-24" vertex="1">
          <mxGeometry x="180" y="50" width="120" height="60" as="geometry" />
        </mxCell>
        <mxCell id="J0xB7BxQOzIGuj7F1EcN-33" style="edgeStyle=orthogonalEdgeStyle;rounded=0;orthogonalLoop=1;jettySize=auto;html=1;" parent="1" source="J0xB7BxQOzIGuj7F1EcN-2" target="J0xB7BxQOzIGuj7F1EcN-31" edge="1">
          <mxGeometry relative="1" as="geometry" />
        </mxCell>
        <mxCell id="J0xB7BxQOzIGuj7F1EcN-34" style="edgeStyle=orthogonalEdgeStyle;rounded=0;orthogonalLoop=1;jettySize=auto;html=1;" parent="1" source="J0xB7BxQOzIGuj7F1EcN-19" target="J0xB7BxQOzIGuj7F1EcN-32" edge="1">
          <mxGeometry relative="1" as="geometry" />
        </mxCell>
        <mxCell id="J0xB7BxQOzIGuj7F1EcN-35" style="edgeStyle=orthogonalEdgeStyle;rounded=0;orthogonalLoop=1;jettySize=auto;html=1;entryX=0;entryY=0.5;entryDx=0;entryDy=0;" parent="1" source="J0xB7BxQOzIGuj7F1EcN-31" target="J0xB7BxQOzIGuj7F1EcN-9" edge="1">
          <mxGeometry relative="1" as="geometry" />
        </mxCell>
        <mxCell id="J0xB7BxQOzIGuj7F1EcN-36" style="edgeStyle=orthogonalEdgeStyle;rounded=0;orthogonalLoop=1;jettySize=auto;html=1;entryX=1;entryY=0.5;entryDx=0;entryDy=0;" parent="1" source="J0xB7BxQOzIGuj7F1EcN-32" target="J0xB7BxQOzIGuj7F1EcN-9" edge="1">
          <mxGeometry relative="1" as="geometry" />
        </mxCell>
        <mxCell id="J0xB7BxQOzIGuj7F1EcN-41" style="edgeStyle=orthogonalEdgeStyle;rounded=0;orthogonalLoop=1;jettySize=auto;html=1;entryX=0.5;entryY=1;entryDx=0;entryDy=0;" parent="1" source="J0xB7BxQOzIGuj7F1EcN-25" target="J0xB7BxQOzIGuj7F1EcN-27" edge="1">
          <mxGeometry relative="1" as="geometry" />
        </mxCell>
        <mxCell id="J0xB7BxQOzIGuj7F1EcN-42" style="edgeStyle=orthogonalEdgeStyle;rounded=0;orthogonalLoop=1;jettySize=auto;html=1;entryX=0.5;entryY=1;entryDx=0;entryDy=0;" parent="1" source="J0xB7BxQOzIGuj7F1EcN-17" target="J0xB7BxQOzIGuj7F1EcN-26" edge="1">
          <mxGeometry relative="1" as="geometry" />
        </mxCell>
        <mxCell id="PXDiuTHxM-yWdiHdvYmS-26" style="edgeStyle=orthogonalEdgeStyle;rounded=0;orthogonalLoop=1;jettySize=auto;html=1;entryX=1;entryY=0.5;entryDx=0;entryDy=0;" edge="1" parent="1" source="PXDiuTHxM-yWdiHdvYmS-7" target="J0xB7BxQOzIGuj7F1EcN-8">
          <mxGeometry relative="1" as="geometry">
            <Array as="points">
              <mxPoint x="830" y="835" />
            </Array>
          </mxGeometry>
        </mxCell>
        <mxCell id="PXDiuTHxM-yWdiHdvYmS-7" value="后台配置中心" style="swimlane;fontStyle=0;childLayout=stackLayout;horizontal=1;startSize=26;fillColor=none;horizontalStack=0;resizeParent=1;resizeParentMax=0;resizeLast=0;collapsible=1;marginBottom=0;" vertex="1" parent="1">
          <mxGeometry x="750" y="30" width="140" height="104" as="geometry" />
        </mxCell>
        <mxCell id="PXDiuTHxM-yWdiHdvYmS-8" value="rule-1" style="text;strokeColor=none;fillColor=none;align=left;verticalAlign=top;spacingLeft=4;spacingRight=4;overflow=hidden;rotatable=0;points=[[0,0.5],[1,0.5]];portConstraint=eastwest;" vertex="1" parent="PXDiuTHxM-yWdiHdvYmS-7">
          <mxGeometry y="26" width="140" height="26" as="geometry" />
        </mxCell>
        <mxCell id="PXDiuTHxM-yWdiHdvYmS-9" value="rule-1" style="text;strokeColor=none;fillColor=none;align=left;verticalAlign=top;spacingLeft=4;spacingRight=4;overflow=hidden;rotatable=0;points=[[0,0.5],[1,0.5]];portConstraint=eastwest;" vertex="1" parent="PXDiuTHxM-yWdiHdvYmS-7">
          <mxGeometry y="52" width="140" height="26" as="geometry" />
        </mxCell>
        <mxCell id="PXDiuTHxM-yWdiHdvYmS-11" value="......" style="text;strokeColor=none;fillColor=none;align=left;verticalAlign=top;spacingLeft=4;spacingRight=4;overflow=hidden;rotatable=0;points=[[0,0.5],[1,0.5]];portConstraint=eastwest;" vertex="1" parent="PXDiuTHxM-yWdiHdvYmS-7">
          <mxGeometry y="78" width="140" height="26" as="geometry" />
        </mxCell>
        <mxCell id="PXDiuTHxM-yWdiHdvYmS-25" style="edgeStyle=orthogonalEdgeStyle;rounded=0;orthogonalLoop=1;jettySize=auto;html=1;" edge="1" parent="1" source="PXDiuTHxM-yWdiHdvYmS-14" target="PXDiuTHxM-yWdiHdvYmS-7">
          <mxGeometry relative="1" as="geometry" />
        </mxCell>
        <mxCell id="PXDiuTHxM-yWdiHdvYmS-14" value="管理员" style="shape=umlActor;verticalLabelPosition=bottom;verticalAlign=top;html=1;outlineConnect=0;" vertex="1" parent="1">
          <mxGeometry x="620" y="52" width="30" height="60" as="geometry" />
        </mxCell>
        <mxCell id="PXDiuTHxM-yWdiHdvYmS-18" style="edgeStyle=orthogonalEdgeStyle;rounded=0;orthogonalLoop=1;jettySize=auto;html=1;" edge="1" parent="1" source="PXDiuTHxM-yWdiHdvYmS-17" target="J0xB7BxQOzIGuj7F1EcN-18">
          <mxGeometry relative="1" as="geometry" />
        </mxCell>
        <mxCell id="PXDiuTHxM-yWdiHdvYmS-17" value="用户/玩家" style="shape=umlActor;verticalLabelPosition=bottom;verticalAlign=top;html=1;outlineConnect=0;" vertex="1" parent="1">
          <mxGeometry x="365" y="30" width="30" height="60" as="geometry" />
        </mxCell>
        <mxCell id="PXDiuTHxM-yWdiHdvYmS-20" style="edgeStyle=orthogonalEdgeStyle;rounded=0;orthogonalLoop=1;jettySize=auto;html=1;" edge="1" parent="1" source="J0xB7BxQOzIGuj7F1EcN-26" target="PXDiuTHxM-yWdiHdvYmS-19">
          <mxGeometry relative="1" as="geometry" />
        </mxCell>
        <mxCell id="PXDiuTHxM-yWdiHdvYmS-22" style="edgeStyle=orthogonalEdgeStyle;rounded=0;orthogonalLoop=1;jettySize=auto;html=1;entryX=0.5;entryY=1;entryDx=0;entryDy=0;" edge="1" parent="1" source="J0xB7BxQOzIGuj7F1EcN-27" target="PXDiuTHxM-yWdiHdvYmS-21">
          <mxGeometry relative="1" as="geometry" />
        </mxCell>
      </root>
    </mxGraphModel>
  </diagram>
</mxfile>
